name D:\school\WTK\thesis\model\3dpredictsim\Results\batch_windlass\Pog_s1_tmt_bCst_d00_k1000_WL30_ig24.mot
datacolumns 128
datarows 4
range 1.09212556 1.12488932
endheader
time	pelvis_tilt	pelvis_list	pelvis_rotation	pelvis_tx	pelvis_ty	pelvis_tz	hip_flexion_l	hip_adduction_l	hip_rotation_l	hip_flexion_r	hip_adduction_r	hip_rotation_r	knee_angle_l	knee_angle_r	ankle_angle_l	ankle_angle_r	subtalar_angle_l	subtalar_angle_r	tmt_angle_l	tmt_angle_r	mtp_angle_l	mtp_angle_r	lumbar_extension	lumbar_bending	lumbar_rotation	arm_flex_l	arm_add_l	arm_rot_l	arm_flex_r	arm_add_r	arm_rot_r	elbow_flex_l	elbow_flex_r	pro_sup_l	pro_sup_r	glut_med1_l/activation	glut_med2_l/activation	glut_med3_l/activation	glut_min1_l/activation	glut_min2_l/activation	glut_min3_l/activation	semimem_l/activation	semiten_l/activation	bifemlh_l/activation	bifemsh_l/activation	sar_l/activation	add_long_l/activation	add_brev_l/activation	add_mag1_l/activation	add_mag2_l/activation	add_mag3_l/activation	tfl_l/activation	pect_l/activation	grac_l/activation	glut_max1_l/activation	glut_max2_l/activation	glut_max3_l/activation	iliacus_l/activation	psoas_l/activation	quad_fem_l/activation	gem_l/activation	peri_l/activation	rect_fem_l/activation	vas_med_l/activation	vas_int_l/activation	vas_lat_l/activation	med_gas_l/activation	lat_gas_l/activation	soleus_l/activation	tib_post_l/activation	flex_dig_l/activation	flex_hal_l/activation	tib_ant_l/activation	per_brev_l/activation	per_long_l/activation	per_tert_l/activation	ext_dig_l/activation	ext_hal_l/activation	ercspn_l/activation	intobl_l/activation	extobl_l/activation	glut_med1_r/activation	glut_med2_r/activation	glut_med3_r/activation	glut_min1_r/activation	glut_min2_r/activation	glut_min3_r/activation	semimem_r/activation	semiten_r/activation	bifemlh_r/activation	bifemsh_r/activation	sar_r/activation	add_long_r/activation	add_brev_r/activation	add_mag1_r/activation	add_mag2_r/activation	add_mag3_r/activation	tfl_r/activation	pect_r/activation	grac_r/activation	glut_max1_r/activation	glut_max2_r/activation	glut_max3_r/activation	iliacus_r/activation	psoas_r/activation	quad_fem_r/activation	gem_r/activation	peri_r/activation	rect_fem_r/activation	vas_med_r/activation	vas_int_r/activation	vas_lat_r/activation	med_gas_r/activation	lat_gas_r/activation	soleus_r/activation	tib_post_r/activation	flex_dig_r/activation	flex_hal_r/activation	tib_ant_r/activation	per_brev_r/activation	per_long_r/activation	per_tert_r/activation	ext_dig_r/activation	ext_hal_r/activation	ercspn_r/activation	intobl_r/activation	extobl_r/activation	
          1.09212556	         -2.92988384	         -1.67608395	          5.28407368	          1.36515695	          0.86052905	         -0.00218572	        -17.69313780	         -1.07283264	          7.16215928	         32.06571761	          2.05395589	         -2.47641598	         -6.39029493	        -16.00322039	          3.15202193	          7.66589855	         10.62887107	          0.29843620	         -7.31539546	         -0.13703684	         25.23368796	          0.43373114	         -1.72415183	         -0.17047842	         -1.93737208	          6.03611962	        -13.45141905	         15.53187707	         -8.36826828	        -13.51557983	          6.67415296	         35.32297128	         16.84255678	         86.51662706	         86.51662706	          0.39803019	          0.11537466	          0.06986484	          0.40748816	          0.23863769	          0.11537066	          0.05000262	          0.05000046	          0.05000041	          0.08135742	          0.10924287	          0.05000014	          0.05000018	          0.05000033	          0.05000092	          0.05000088	          0.30840104	          0.05000067	          0.05000105	          0.05405870	          0.05003683	          0.05000293	          0.34357899	          0.55087073	          0.05000152	          0.05179672	          0.05910109	          0.20049301	          0.05000136	          0.05000130	          0.05000139	          0.33111399	          0.43069465	          0.29401633	          0.26030367	          0.24221150	          0.33756794	          0.05000006	          0.10874975	          0.19339804	          0.05000022	          0.05000007	          0.05000028	          0.05000003	          0.05000006	          0.05000007	          0.05000211	          0.05910046	          0.05000464	          0.05910082	          0.05910014	          0.05000506	          0.06265474	          0.06985820	          0.06986015	          0.05000075	          0.05000071	          0.12084716	          0.16101362	          0.15281733	          0.12881179	          0.07693546	          0.05000078	          0.05000337	          0.06986135	          0.05910054	          0.07132062	          0.08985628	          0.05910295	          0.05957252	          0.22443068	          0.06905855	          0.06918320	          0.05000124	          0.05833491	          0.06491794	          0.05012547	          0.06985859	          0.06985850	          0.05161359	          0.05910086	          0.05520783	          0.05000524	          0.44722405	          0.28924767	          0.19585420	          0.15762179	          0.53580031	          0.19853597	          0.06847745	          0.13040915	          0.13362638	
          1.10304681	         -2.92923664	         -1.75481398	          5.54295372	          1.38146028	          0.85986968	         -0.00197758	        -17.58136951	         -1.35393853	          6.94953226	         31.45247348	          2.43252022	         -2.32457950	         -8.20538736	        -15.27266395	          2.32488512	          7.30502725	         11.53891665	         -0.14749221	         -7.96358848	         -0.19008966	         26.61432190	          0.60186962	         -1.54127054	          0.05973062	         -2.02021531	          5.88267508	        -13.45896693	         15.86334825	         -9.40153775	        -13.50515116	          6.46059452	         36.41609812	         16.70799980	         86.51662706	         86.51662706	          0.34677244	          0.09760799	          0.05910629	          0.34473919	          0.20188965	          0.09760463	          0.05000202	          0.05000034	          0.05000023	          0.06882914	          0.09242081	          0.08917236	          0.05000235	          0.05000100	          0.05000219	          0.05000110	          0.26091015	          0.05385438	          0.05000081	          0.05000220	          0.05000145	          0.05000118	          0.29067124	          0.52147490	          0.05000014	          0.05000039	          0.05000020	          0.16961891	          0.10190645	          0.05018775	          0.06958333	          0.28012533	          0.36437146	          0.24874039	          0.22479288	          0.20491444	          0.28558611	          0.05000002	          0.10824775	          0.17327569	          0.05000024	          0.05000005	          0.05000017	          0.05000003	          0.05000006	          0.05000011	          0.05000038	          0.05000032	          0.05000125	          0.05000033	          0.05000040	          0.05000096	          0.05910113	          0.05910104	          0.05910277	          0.05000040	          0.05000152	          0.10223987	          0.13622046	          0.21175397	          0.17322181	          0.10190475	          0.05000209	          0.05895630	          0.05910439	          0.05000163	          0.07740268	          0.10415037	          0.05000181	          0.05039901	          0.23402797	          0.05877984	          0.05853091	          0.05000029	          0.11843232	          0.12272881	          0.10080491	          0.05910104	          0.05910103	          0.05910103	          0.05000009	          0.05000050	          0.05000125	          0.51782504	          0.32980786	          0.19350678	          0.24205165	          0.59059251	          0.27965881	          0.05793343	          0.11032730	          0.11304910	
          1.11396807	         -2.92316727	         -1.82903296	          5.77670280	          1.39809790	          0.85912045	         -0.00176138	        -17.38761025	         -1.62643890	          6.72152950	         30.73543398	          2.80282598	         -2.12413674	        -10.18441658	        -15.03253865	          1.36561498	          6.74491013	         12.43175187	         -0.59704221	         -8.53762809	         -0.24824363	         27.74683385	          0.78579880	         -1.33497148	          0.29469420	         -2.09598968	          5.64362518	        -13.47391577	         16.12739871	        -10.45041844	        -13.49395739	          6.28466359	         37.48081811	         16.59073584	         86.51662706	         86.51662706	          0.29337262	          0.08257724	          0.05000456	          0.29165261	          0.17080049	          0.08257444	          0.05000767	          0.05000092	          0.05000119	          0.05823017	          0.07818915	          0.16644852	          0.14872451	          0.06985986	          0.05002555	          0.07633191	          0.22073241	          0.09503223	          0.05000615	          0.05000363	          0.05000261	          0.05000255	          0.24591048	          0.45026744	          0.05000072	          0.05001299	          0.05910099	          0.14349915	          0.13687931	          0.16119144	          0.13637106	          0.23698848	          0.30826145	          0.21043654	          0.19017688	          0.17335985	          0.24160856	          0.05000005	          0.09157862	          0.14659285	          0.05000018	          0.05000009	          0.05000024	          0.05000005	          0.06985886	          0.05000037	          0.05000164	          0.05000212	          0.05072780	          0.05000157	          0.05000158	          0.05000126	          0.05000013	          0.05000037	          0.05000152	          0.05000074	          0.05076670	          0.08649608	          0.11524387	          0.28248902	          0.20030167	          0.08621368	          0.05000033	          0.05000224	          0.05000338	          0.05910116	          0.06958354	          0.11365900	          0.05000030	          0.05000086	          0.51722669	          0.12670222	          0.11482811	          0.06985895	          0.23691318	          0.23874293	          0.20217429	          0.05000001	          0.05000004	          0.05000000	          0.06315058	          0.06985922	          0.06985610	          0.56975718	          0.37254455	          0.21015004	          0.37656483	          0.60626325	          0.32304070	          0.05000003	          0.09333787	          0.09564053	
          1.12488932	         -2.91278027	         -1.90537857	          5.98408855	          1.41499247	          0.85825583	         -0.00156979	        -17.13809496	         -1.89268518	          6.47867256	         29.86071396	          3.10925403	         -1.85792325	        -12.27072486	        -15.23783177	          0.27206584	          6.15349965	         13.26898198	         -1.07657316	         -8.98644668	         -0.45360781	         28.48886635	          0.93032237	         -1.11156046	          0.54065060	         -2.15988215	          5.33118772	        -13.48862096	         16.32281933	        -11.49141090	        -13.49027100	          6.18143404	         38.51483031	         16.45872889	         86.51662706	         86.51662706	          0.37718964	          0.06986110	          0.05000018	          0.24674149	          0.14449880	          0.06985875	          0.05000268	          0.05000043	          0.05000040	          0.05000015	          0.06614911	          0.16325878	          0.27825397	          0.05910320	          0.05909938	          0.06457931	          0.18674183	          0.08244682	          0.05000157	          0.05000757	          0.05000713	          0.05001166	          0.20804250	          0.42589935	          0.05000076	          0.05000093	          0.05000015	          0.12140157	          0.11580248	          0.13636976	          0.11537149	          0.20049432	          0.26079189	          0.17803115	          0.16089135	          0.14666413	          0.20440307	          0.09767392	          0.12914974	          0.18317126	          0.05000037	          0.14087032	          0.05000202	          0.05814910	          0.05910121	          0.05910115	          0.29544839	          0.05000021	          0.28379331	          0.05000068	          0.05000046	          0.29861863	          0.08708661	          0.05000037	          0.08371372	          0.05000007	          0.05000033	          0.08240016	          0.19549486	          0.23898872	          0.17557808	          0.12095305	          0.05000103	          0.06716664	          0.06588417	          0.05000041	          0.05886843	          0.09615710	          0.05000358	          0.05000064	          0.43757834	          0.10719134	          0.20300654	          0.05910130	          0.20043072	          0.20197873	          0.17104130	          0.05910107	          0.05910109	          0.05910105	          0.05910102	          0.05910168	          0.05910122	          0.48201958	          0.31517676	          0.17778887	          0.35562943	          0.65815368	          0.40191432	          0.05000004	          0.09760458	          0.08091273	
